<?xml version="1.0" standalone="no"?>
<!DOCTYPE svg PUBLIC "-//W3C//DTD SVG 20010904//EN"
 "http://www.w3.org/TR/2001/REC-SVG-20010904/DTD/svg10.dtd">
<svg version="1.0" xmlns="http://www.w3.org/2000/svg"
 width="1024.000000pt" height="1024.000000pt" viewBox="0 0 1024.000000 1024.000000"
 preserveAspectRatio="xMidYMid meet">
<metadata>
Created by potrace 1.14, written by Peter Selinger 2001-2017
</metadata>
<g transform="translate(0.000000,1024.000000) scale(0.100000,-0.100000)"
fill="#000000" stroke="none">
<path d="M4925 9975 c-66 -7 -145 -17 -175 -23 -30 -6 -68 -13 -85 -15 -325
-48 -739 -180 -1054 -337 -57 -28 -115 -56 -130 -61 -46 -18 -333 -190 -429
-259 -129 -92 -300 -226 -387 -304 -301 -268 -638 -658 -768 -890 -16 -28 -46
-73 -66 -101 -21 -27 -51 -75 -68 -105 -157 -283 -279 -538 -334 -700 -94
-273 -130 -386 -149 -463 -19 -75 -46 -183 -72 -282 -13 -50 -42 -236 -65
-415 -16 -117 -18 -220 -17 -770 1 -684 11 -927 49 -1235 30 -235 58 -378 106
-544 11 -35 19 -71 19 -79 0 -23 138 -428 170 -497 77 -172 108 -237 146 -310
94 -182 166 -310 198 -354 18 -25 64 -91 101 -146 65 -97 176 -239 279 -359
150 -174 614 -606 652 -606 5 0 35 -22 66 -50 31 -27 59 -50 62 -50 3 0 27
-15 53 -34 94 -66 309 -193 473 -278 63 -32 122 -63 130 -67 27 -16 176 -81
184 -81 4 0 22 -7 39 -15 97 -44 335 -125 497 -169 30 -8 87 -24 125 -36 118
-35 528 -104 714 -120 207 -18 476 -22 681 -10 241 13 315 22 555 65 208 38
243 45 310 65 39 11 113 32 165 46 193 52 502 165 648 238 419 209 745 420
992 640 120 107 245 223 278 259 20 21 56 59 81 85 25 27 60 66 76 87 17 22
48 60 70 85 129 149 367 489 439 630 21 41 45 82 52 90 13 15 121 233 142 285
7 17 23 49 37 73 50 88 156 392 238 677 47 163 121 494 132 590 2 16 9 75 15
130 6 55 15 135 20 179 25 201 22 640 -5 906 -13 133 -27 247 -30 260 -3 8
-11 62 -20 120 -23 157 -67 349 -132 575 -49 172 -175 535 -210 607 -19 40
-53 114 -75 163 -55 126 -205 411 -243 465 -18 25 -55 83 -81 130 -107 185
-349 508 -524 698 -58 63 -125 137 -150 165 -25 28 -58 62 -75 76 -16 14 -61
56 -100 93 -38 37 -81 76 -95 86 -14 11 -50 43 -80 71 -30 28 -57 51 -61 51
-4 0 -44 30 -88 68 -122 102 -263 201 -496 348 -450 283 -1067 521 -1566 604
-68 11 -160 27 -204 35 -44 9 -132 19 -195 24 -171 12 -628 10 -765 -4z m450
-686 c28 1 84 -3 125 -9 41 -5 102 -12 135 -15 33 -3 80 -8 105 -11 25 -4 60
-7 77 -8 18 0 33 -4 33 -7 0 -4 10 -5 23 -5 12 1 27 -2 33 -6 7 -5 16 -8 20
-7 29 5 54 -2 48 -13 -5 -8 0 -7 11 2 14 11 17 11 11 1 -7 -10 -4 -12 12 -7
11 4 23 2 27 -4 4 -6 13 -9 21 -6 8 3 30 -3 48 -14 19 -10 36 -16 39 -14 3 3
25 0 48 -6 24 -7 55 -14 68 -17 13 -2 35 -10 50 -17 14 -7 32 -11 39 -9 6 3
12 0 12 -6 0 -6 7 -8 15 -5 8 4 22 1 30 -6 8 -6 23 -9 35 -5 12 4 20 2 20 -5
0 -7 7 -10 15 -6 8 3 20 -1 27 -7 18 -18 51 -30 42 -16 -3 6 3 5 15 -3 12 -7
21 -16 21 -20 0 -4 9 -5 19 -3 11 2 22 -3 25 -11 3 -7 12 -11 21 -8 8 3 15 2
15 -4 0 -9 41 -22 83 -27 10 -1 31 -12 47 -24 16 -11 35 -21 43 -21 7 0 31 -9
53 -19 22 -11 52 -23 67 -26 15 -4 27 -11 27 -15 0 -4 16 -11 35 -14 19 -4 35
-11 35 -17 0 -5 6 -9 13 -8 6 2 29 -7 49 -20 20 -12 40 -22 42 -22 3 0 20 -8
38 -19 18 -11 56 -30 83 -43 28 -14 71 -43 97 -66 25 -22 52 -41 60 -41 8 0
23 -6 33 -14 10 -7 26 -11 36 -9 11 3 29 -6 44 -21 14 -15 31 -24 36 -21 5 4
9 -1 9 -9 0 -9 14 -23 30 -31 17 -9 28 -20 25 -25 -4 -6 0 -10 7 -10 7 0 38
-22 68 -50 30 -27 61 -49 68 -50 6 0 12 -4 12 -9 0 -9 12 -17 79 -53 13 -7 36
-24 52 -38 15 -14 42 -37 60 -53 19 -15 52 -42 74 -60 21 -17 54 -47 71 -64
18 -18 36 -33 41 -33 5 0 15 -9 23 -20 8 -11 21 -20 28 -20 8 0 12 -6 8 -15
-6 -16 26 -39 39 -27 5 4 5 1 1 -5 -4 -8 5 -20 26 -33 18 -11 29 -20 24 -20
-5 0 18 -26 50 -59 33 -32 79 -82 104 -110 25 -29 63 -71 86 -94 22 -23 44
-50 47 -60 4 -11 12 -15 18 -11 7 4 9 3 6 -4 -4 -5 6 -23 23 -39 16 -15 30
-32 30 -36 0 -4 12 -19 26 -32 14 -13 24 -26 22 -28 -2 -3 9 -15 25 -27 15
-12 27 -28 27 -36 0 -8 5 -14 10 -14 6 0 10 -7 10 -15 0 -8 9 -23 20 -32 11
-10 20 -22 20 -28 0 -5 10 -22 23 -37 13 -14 32 -44 43 -65 10 -21 24 -41 29
-45 6 -5 6 -8 1 -8 -6 0 -1 -7 10 -15 10 -8 15 -15 11 -15 -4 0 0 -9 10 -19
10 -11 29 -41 43 -68 14 -26 33 -60 43 -75 10 -16 15 -28 10 -28 -4 0 1 -7 11
-15 11 -8 16 -15 10 -15 -5 0 -4 -4 3 -8 6 -4 14 -20 17 -36 3 -16 14 -39 26
-51 11 -12 22 -32 25 -44 2 -12 11 -28 19 -36 8 -9 13 -22 10 -30 -4 -8 1 -18
10 -21 9 -3 14 -9 11 -14 -2 -4 2 -16 10 -26 8 -10 15 -27 15 -36 0 -10 5 -18
10 -18 6 0 10 -6 10 -14 0 -8 4 -25 9 -38 5 -13 9 -27 11 -33 1 -5 9 -18 17
-27 9 -10 13 -18 8 -18 -4 0 -2 -7 5 -15 7 -8 9 -15 5 -15 -4 0 -2 -6 4 -13 6
-8 8 -17 4 -20 -3 -4 -1 -7 6 -7 7 0 9 -4 6 -10 -3 -5 -2 -10 3 -10 10 0 27
-48 23 -64 -1 -4 3 -14 8 -20 6 -7 12 -21 14 -32 1 -10 6 -25 10 -31 5 -7 5
-18 1 -25 -4 -6 -3 -8 3 -5 6 4 13 -9 16 -33 3 -21 12 -53 21 -71 9 -17 13
-35 10 -40 -3 -5 2 -12 10 -15 9 -3 13 -10 10 -15 -3 -5 -2 -15 3 -21 4 -7 8
-17 8 -23 2 -27 18 -91 25 -100 5 -5 13 -37 20 -70 6 -33 12 -64 13 -70 2 -5
6 -15 9 -21 4 -6 8 -27 10 -47 1 -21 5 -37 8 -37 3 0 6 -15 7 -33 1 -17 4 -43
7 -57 3 -14 7 -36 10 -50 3 -14 7 -51 10 -82 3 -32 8 -69 12 -83 4 -17 2 -25
-7 -25 -12 0 -12 -2 -1 -9 10 -6 15 -39 17 -112 2 -57 8 -116 14 -130 5 -15 7
-30 3 -33 -10 -11 -11 -40 -1 -52 6 -7 6 -27 1 -51 -5 -21 -6 -47 -2 -58 4
-11 4 -28 -1 -37 -5 -10 -5 -19 0 -23 6 -3 7 -15 5 -28 -3 -12 -4 -42 -3 -67
4 -98 0 -235 -8 -237 -4 -2 -8 -36 -7 -76 0 -39 -2 -76 -5 -82 -2 -5 -6 -21
-7 -35 -2 -14 -6 -45 -10 -70 -3 -25 -8 -61 -10 -80 -1 -19 -6 -46 -9 -60 -4
-14 -7 -31 -7 -37 -1 -7 -4 -13 -8 -13 -3 0 -7 -15 -7 -32 -1 -40 -7 -65 -16
-74 -4 -4 -2 -13 3 -20 8 -8 6 -16 -4 -27 -8 -8 -16 -35 -17 -61 -2 -25 -6
-46 -11 -46 -4 0 -8 -10 -8 -22 -1 -13 -7 -34 -14 -47 -7 -13 -11 -32 -8 -43
2 -10 0 -18 -5 -18 -5 0 -8 -16 -8 -35 1 -19 -2 -35 -6 -35 -8 0 -19 -32 -26
-75 -2 -16 -9 -32 -14 -33 -5 -2 -7 -8 -3 -13 3 -5 1 -9 -4 -9 -6 0 -13 -7
-16 -16 -3 -8 -2 -12 4 -9 6 3 -1 -15 -15 -41 -14 -26 -25 -53 -25 -60 0 -8
-6 -14 -12 -14 -9 0 -8 -4 2 -10 11 -7 11 -10 2 -10 -7 0 -11 -4 -8 -9 3 -5
-1 -14 -10 -21 -8 -7 -13 -19 -10 -27 3 -7 0 -13 -7 -13 -7 0 -14 -9 -15 -20
-4 -42 -6 -50 -12 -50 -4 0 -12 -18 -19 -40 -7 -22 -16 -38 -21 -35 -4 3 -7
-3 -5 -12 1 -10 -2 -24 -8 -30 -5 -7 -6 -13 -1 -13 4 0 0 -6 -10 -13 -10 -7
-19 -25 -19 -40 -1 -15 -8 -27 -15 -27 -7 0 -11 -4 -8 -9 3 -5 -7 -26 -22 -47
-16 -22 -32 -52 -36 -67 -4 -16 -11 -25 -17 -21 -7 4 -9 -1 -5 -14 5 -15 1
-24 -14 -32 -13 -7 -19 -18 -16 -26 3 -8 1 -14 -4 -14 -5 0 -12 -9 -15 -20 -4
-11 -17 -32 -31 -47 -13 -14 -22 -29 -19 -33 5 -7 -30 -58 -48 -71 -5 -3 -8
-10 -8 -15 1 -5 -18 -36 -43 -69 -24 -33 -49 -71 -56 -85 -7 -14 -19 -29 -27
-33 -7 -5 -10 -13 -7 -19 5 -8 1 -9 -10 -5 -10 4 -15 3 -11 -3 3 -6 1 -10 -4
-10 -6 0 -11 -6 -11 -14 0 -8 -11 -23 -25 -34 -13 -11 -22 -22 -19 -24 2 -3
-10 -20 -28 -37 -25 -24 -28 -31 -13 -26 l20 7 -20 -13 c-27 -17 -83 -80 -91
-101 -3 -10 -12 -18 -20 -18 -8 0 -14 -7 -14 -16 0 -8 -4 -12 -10 -9 -5 3 -10
0 -10 -8 0 -8 -12 -23 -27 -32 -44 -28 -89 -81 -50 -59 7 4 9 3 4 -2 -5 -5
-12 -9 -15 -9 -4 0 -18 -8 -32 -18 -13 -9 -21 -17 -16 -17 5 0 -5 -14 -23 -30
-17 -17 -36 -28 -41 -25 -6 3 -10 1 -10 -5 0 -14 -40 -67 -40 -54 0 5 -5 1
-11 -9 -6 -9 -15 -14 -21 -11 -6 4 -8 3 -5 -3 6 -10 -17 -34 -52 -53 -12 -6
-19 -15 -16 -20 3 -6 0 -7 -8 -4 -8 3 -27 -10 -46 -31 -17 -20 -31 -33 -31
-30 0 3 -11 -6 -25 -21 -14 -15 -25 -24 -25 -20 0 4 -6 1 -14 -6 -8 -7 -11
-17 -8 -22 3 -5 0 -6 -7 -1 -8 4 -18 -1 -27 -14 -8 -12 -22 -21 -30 -21 -8 0
-14 -4 -14 -10 0 -5 -7 -10 -15 -10 -8 0 -15 -4 -15 -9 0 -5 -13 -13 -28 -19
-16 -5 -42 -22 -58 -37 -16 -15 -45 -36 -64 -46 -47 -26 -70 -41 -90 -60 -9
-8 -38 -26 -63 -38 -26 -13 -47 -27 -47 -32 0 -6 -4 -8 -8 -5 -5 3 -18 -3 -29
-14 -12 -10 -23 -16 -26 -13 -6 6 -114 -45 -122 -57 -6 -9 -111 -61 -129 -64
-8 -1 -20 -7 -28 -14 -8 -6 -18 -9 -21 -5 -4 3 -7 1 -7 -6 0 -7 -4 -10 -9 -6
-5 3 -17 -3 -27 -12 -10 -10 -19 -16 -21 -14 -2 1 -16 -1 -31 -7 -15 -6 -36
-13 -47 -18 -11 -4 -26 -8 -33 -10 -8 -1 -22 -10 -31 -18 -10 -9 -29 -16 -42
-16 -14 0 -36 -8 -49 -17 -14 -10 -26 -16 -28 -15 -7 8 -62 -11 -62 -21 0 -8
-3 -7 -9 2 -6 9 -11 10 -15 2 -4 -6 -12 -9 -17 -6 -5 4 -22 -3 -38 -14 -22
-16 -31 -18 -41 -8 -8 8 -11 8 -7 1 4 -8 -7 -15 -31 -20 -20 -4 -41 -9 -47
-10 -39 -12 -92 -25 -102 -26 -7 -1 -13 -4 -13 -7 0 -3 -17 -7 -38 -8 -47 -3
-152 -25 -152 -33 0 -3 -18 -4 -40 -4 -24 1 -40 -3 -40 -10 0 -7 -4 -6 -9 3
-6 9 -13 10 -28 3 -10 -6 -41 -13 -68 -15 -28 -3 -50 -6 -50 -7 0 -6 -126 -20
-215 -23 -36 -2 -70 -6 -77 -10 -6 -4 -15 -3 -18 3 -4 7 -12 7 -18 2 -7 -4
-67 -8 -135 -8 -67 1 -122 -3 -122 -7 0 -4 -8 -4 -17 1 -10 5 -28 8 -41 6 -12
-2 -40 0 -62 5 -28 6 -38 6 -33 -2 4 -7 0 -8 -13 -3 -24 9 -114 19 -176 18
-27 0 -48 4 -48 7 0 7 -13 9 -100 12 -22 1 -38 5 -36 8 3 3 -12 5 -32 5 -21
-1 -41 1 -47 5 -5 4 -29 9 -53 10 -24 1 -54 6 -68 11 -13 5 -54 12 -91 15 -37
3 -69 8 -72 12 -3 5 -23 9 -44 9 -20 1 -45 5 -55 9 -9 4 -24 9 -32 10 -8 1
-46 13 -85 26 -38 13 -73 24 -77 25 -5 1 -11 3 -15 4 -5 2 -12 4 -18 5 -22 4
-71 17 -85 22 -8 3 -21 7 -28 9 -8 1 -29 10 -48 19 -20 9 -46 18 -58 21 -13 2
-37 11 -52 19 -16 8 -35 15 -42 15 -7 0 -20 4 -30 9 -80 41 -233 111 -242 111
-7 0 -24 9 -39 19 -15 11 -39 23 -54 26 -14 4 -31 13 -38 21 -6 8 -18 14 -25
14 -8 0 -23 9 -34 20 -11 11 -20 17 -20 14 0 -4 -7 0 -17 7 -9 8 -18 13 -19
12 -10 -7 -33 11 -27 21 4 6 -2 4 -12 -4 -10 -8 -16 -10 -12 -3 5 8 -6 18 -30
30 -21 9 -42 21 -48 25 -69 53 -108 78 -115 73 -5 -3 -20 6 -34 20 -14 14 -28
25 -31 25 -3 0 -15 9 -27 20 -12 11 -28 20 -35 20 -7 0 -13 5 -13 12 0 6 -3 8
-7 5 -3 -4 -13 2 -20 13 -8 11 -19 18 -24 15 -5 -4 -9 0 -9 8 0 7 -11 19 -25
25 -14 6 -25 16 -25 22 0 5 -7 10 -15 10 -8 0 -15 4 -15 10 0 5 -19 22 -42 36
-41 26 -96 76 -266 246 -98 98 -131 133 -155 168 -9 14 -17 22 -17 18 0 -4
-13 7 -30 24 -16 16 -30 33 -30 36 0 4 -17 25 -37 47 -21 22 -47 57 -58 78
-11 20 -31 49 -44 64 -34 36 -91 120 -91 133 0 6 -10 21 -22 34 -13 13 -36 48
-52 77 -16 30 -35 61 -41 69 -25 30 -125 222 -125 240 0 5 -4 10 -8 10 -4 0
-14 21 -21 48 -8 26 -20 56 -28 68 -7 11 -10 24 -6 27 3 4 1 7 -5 7 -7 0 -12
7 -12 15 0 18 -20 57 -35 67 -6 5 -6 8 2 8 7 0 3 20 -12 58 -26 65 -73 208
-78 237 -1 11 -6 26 -10 33 -5 6 -5 17 -2 22 3 6 2 10 -3 10 -5 0 -13 21 -17
46 -7 46 -10 64 -22 119 -3 17 -6 45 -5 63 0 17 -2 32 -6 32 -4 0 -7 39 -7 88
0 48 -3 102 -6 119 -5 22 -3 31 4 26 6 -4 8 0 4 10 -3 9 -2 19 2 22 5 3 8 19
7 36 -1 17 4 38 12 45 9 9 9 14 2 14 -7 0 -5 6 4 16 9 8 16 24 16 35 0 11 4
18 9 15 5 -3 15 8 22 26 11 28 79 106 79 91 0 -3 7 1 17 8 15 13 82 20 84 9 0
-3 2 -14 4 -25 5 -23 16 -107 20 -145 3 -31 16 -82 24 -95 3 -5 7 -19 8 -30 2
-11 12 -56 24 -100 11 -44 22 -89 25 -101 2 -12 11 -41 20 -65 8 -24 29 -88
45 -142 16 -54 38 -115 49 -135 11 -20 20 -41 20 -46 0 -23 109 -240 185 -371
16 -27 50 -79 74 -115 25 -36 66 -96 93 -135 112 -165 297 -384 386 -458 40
-34 52 -48 47 -58 -4 -5 1 -9 10 -9 9 0 44 -28 78 -61 68 -68 207 -179 303
-243 16 -11 34 -24 39 -30 6 -6 30 -24 55 -41 25 -16 48 -34 52 -40 4 -5 8 -6
8 -1 0 4 15 -3 33 -16 59 -45 244 -147 369 -204 189 -86 200 -90 253 -108 28
-10 59 -21 70 -26 42 -17 141 -51 161 -54 12 -3 52 -16 88 -31 37 -15 70 -24
73 -21 4 3 17 -1 30 -9 13 -9 23 -14 23 -11 0 2 17 0 38 -6 42 -11 45 -11 167
-33 49 -9 92 -18 95 -20 3 -2 46 -7 95 -10 49 -4 112 -11 140 -15 68 -11 501
-11 573 0 31 5 89 12 127 15 113 10 201 22 213 29 6 4 26 9 44 11 18 3 44 7
58 11 14 3 34 7 45 9 28 6 48 11 65 18 8 3 33 10 55 15 22 6 65 18 95 27 30 9
64 18 75 20 11 2 47 13 80 25 33 12 69 24 80 27 22 6 99 39 127 54 10 5 22 9
27 9 10 0 95 38 231 103 47 22 87 41 90 41 3 1 21 11 41 24 20 12 41 22 47 22
6 0 12 4 14 9 2 5 26 20 53 35 28 15 77 47 110 71 33 24 77 54 98 66 20 13 37
26 37 31 0 4 6 8 14 8 8 0 33 16 56 35 23 19 45 35 50 35 4 0 26 17 48 37 22
21 47 43 55 49 7 7 22 23 33 36 25 32 69 60 79 51 4 -5 6 -2 3 6 -2 8 16 32
41 55 26 22 62 56 81 76 19 19 38 34 43 32 4 -1 7 3 7 9 0 6 21 31 48 55 26
24 43 44 37 44 -7 0 -7 3 0 8 6 4 38 41 73 82 34 41 70 84 80 95 9 11 31 38
47 60 17 22 33 42 38 43 4 2 7 9 7 15 0 6 9 20 19 31 11 12 21 28 23 36 3 14
11 27 33 53 22 26 56 77 51 77 -3 0 17 36 44 80 28 44 50 84 50 90 0 5 3 10 8
10 8 0 48 91 44 103 -1 4 2 7 8 7 12 0 42 69 34 81 -3 5 -1 9 5 9 9 0 21 26
20 44 0 5 3 12 8 15 13 9 40 70 48 109 4 17 11 32 17 32 6 0 8 3 5 7 -4 3 -3
11 2 17 10 12 36 97 33 109 -1 4 3 7 8 7 6 0 10 8 10 19 0 10 7 35 15 55 8 20
13 36 10 36 -3 0 1 13 9 29 9 16 12 31 9 35 -4 3 -2 6 4 6 5 0 10 6 10 13 2
26 33 166 50 222 3 11 6 30 7 43 0 12 4 22 7 22 3 0 6 6 6 13 1 30 14 110 18
118 3 4 8 32 10 61 3 29 10 89 16 133 6 44 13 116 16 160 5 91 4 387 -2 455
-2 25 -7 86 -10 135 -6 94 -8 120 -19 195 -3 25 -8 61 -11 80 -2 19 -9 59 -15
89 -5 30 -8 56 -5 59 3 3 0 11 -6 19 -6 7 -13 25 -15 40 -12 80 -17 103 -24
103 -4 0 -6 16 -4 35 1 19 -2 35 -7 35 -5 0 -8 3 -7 8 4 15 -14 72 -21 67 -5
-2 -7 11 -6 30 1 19 -1 35 -5 35 -10 0 -41 93 -43 133 -1 9 -5 17 -9 17 -4 0
-12 19 -19 43 -6 23 -19 59 -29 79 -10 21 -24 60 -31 88 -7 27 -16 50 -21 50
-4 0 -8 9 -8 19 0 11 -5 21 -10 23 -6 2 -12 16 -14 31 -2 16 -10 37 -19 48 -9
10 -14 25 -11 34 4 8 1 15 -5 15 -6 0 -11 11 -11 25 0 14 -4 25 -10 25 -5 0
-10 7 -10 15 0 9 -7 27 -16 40 -9 13 -12 30 -8 36 4 7 3 9 -2 6 -6 -3 -16 3
-23 15 -7 12 -8 17 -2 13 6 -3 3 7 -6 23 -57 94 -93 160 -93 170 0 7 -4 12 -9
12 -5 0 -12 14 -16 30 -4 17 -10 28 -15 25 -8 -5 -17 10 -18 29 0 5 -4 12 -9
15 -5 3 -19 23 -32 44 -13 21 -29 44 -37 52 -8 8 -13 16 -12 19 2 2 -9 18 -24
35 -16 17 -28 35 -28 39 0 5 -10 20 -22 33 -13 14 -32 43 -43 66 -11 23 -23
39 -27 37 -5 -3 -8 2 -8 10 0 9 -4 16 -10 16 -5 0 -10 6 -10 14 0 8 -4 16 -8
18 -5 2 -32 35 -61 73 -29 39 -59 74 -67 78 -8 4 -14 13 -14 20 0 7 -13 21
-29 31 -16 11 -27 25 -24 32 2 7 -5 15 -16 19 -11 3 -23 15 -26 26 -4 10 -11
19 -16 19 -5 0 -9 7 -9 16 0 8 -4 13 -10 9 -5 -3 -16 7 -24 22 -8 15 -34 45
-58 66 -84 75 -117 107 -110 107 3 0 -8 11 -26 23 -17 13 -28 28 -24 32 4 5 2
5 -4 2 -7 -4 -30 11 -53 33 -23 22 -46 40 -51 40 -6 0 -10 7 -10 16 0 8 -4 13
-8 10 -5 -3 -26 12 -48 32 -21 20 -52 45 -67 55 -16 11 -25 23 -21 30 4 7 3 9
-1 4 -5 -4 -18 1 -29 11 -12 11 -40 30 -64 44 -23 13 -39 28 -35 31 3 4 -1 7
-10 7 -9 0 -17 5 -17 10 0 6 -5 10 -10 10 -13 0 -87 47 -120 76 -14 12 -56 39
-95 59 -38 20 -76 41 -82 47 -7 6 -13 7 -13 4 0 -4 -7 0 -16 8 -8 9 -22 16
-30 16 -8 0 -14 4 -14 9 0 12 -131 75 -149 72 -8 -1 -10 2 -6 10 5 7 3 10 -6
7 -8 -3 -22 1 -31 10 -14 11 -18 12 -18 2 0 -10 -4 -10 -17 2 -17 14 -77 41
-87 39 -3 0 -21 7 -38 17 -37 21 -87 36 -105 33 -7 -1 -13 2 -13 7 0 5 -14 9
-31 10 -17 0 -37 7 -46 14 -9 7 -21 13 -27 13 -24 1 -76 17 -76 23 0 4 -24 8
-52 10 -29 2 -55 6 -58 10 -3 4 -18 8 -35 8 -16 1 -43 4 -60 8 -16 4 -46 9
-65 11 -48 6 -78 13 -90 20 -6 3 -10 0 -10 -7 0 -8 -3 -9 -8 -3 -4 6 -18 10
-32 10 -14 0 -33 3 -43 8 -10 5 -56 9 -102 9 -47 0 -83 3 -81 7 7 11 -194 12
-215 1 -13 -8 -19 -7 -19 0 0 6 -10 8 -22 5 -13 -2 -76 -7 -141 -9 -64 -3
-121 -7 -125 -10 -5 -3 -28 -7 -53 -11 -100 -12 -115 -14 -137 -19 -12 -3 -27
-8 -34 -12 -7 -5 -8 -3 -3 7 7 11 6 12 -7 2 -8 -7 -18 -10 -21 -6 -4 3 -12 1
-19 -4 -7 -6 -34 -13 -59 -16 -26 -3 -67 -11 -90 -18 -24 -6 -53 -13 -64 -15
-38 -6 -70 -12 -72 -14 -2 -2 -7 -4 -13 -5 -5 -1 -13 -4 -17 -5 -5 -1 -11 -2
-15 -1 -3 0 -30 -7 -60 -16 -29 -9 -59 -18 -67 -19 -7 -1 -18 -7 -24 -13 -6
-6 -21 -11 -33 -11 -12 0 -27 -6 -34 -14 -6 -8 -19 -12 -27 -9 -11 4 -14 2 -9
-5 6 -10 -1 -14 -16 -12 -2 1 -35 -12 -75 -29 -39 -16 -74 -27 -77 -23 -3 3
-6 0 -6 -6 0 -7 -3 -11 -7 -10 -5 1 -22 -5 -39 -15 -17 -9 -34 -13 -38 -10 -3
4 -6 -1 -6 -11 0 -9 -4 -15 -8 -12 -12 7 -84 -19 -75 -27 3 -4 1 -7 -6 -7 -7
0 -27 -11 -45 -25 -18 -14 -38 -25 -44 -25 -7 0 -12 -4 -12 -10 0 -5 -6 -10
-14 -10 -8 0 -21 -9 -29 -20 -8 -11 -17 -17 -20 -14 -3 4 -18 -3 -33 -15 -15
-11 -32 -21 -40 -21 -7 0 -14 -4 -16 -9 -1 -4 -22 -20 -45 -35 -24 -14 -43
-33 -43 -41 0 -8 -6 -12 -13 -9 -7 2 -29 -10 -49 -28 -20 -18 -42 -34 -50 -36
-7 -2 -19 -12 -27 -22 -7 -11 -19 -20 -26 -20 -7 0 -15 -7 -19 -15 -3 -8 -17
-20 -31 -25 -15 -6 -24 -14 -21 -19 3 -5 -8 -14 -24 -21 -17 -7 -30 -16 -30
-20 0 -13 -75 -90 -88 -90 -6 0 -16 -10 -23 -21 -6 -12 -59 -69 -118 -127 -58
-58 -105 -109 -103 -114 1 -4 -5 -8 -14 -8 -8 0 -13 -4 -9 -9 3 -5 -14 -29
-38 -54 -24 -24 -46 -51 -50 -60 -3 -9 -11 -17 -17 -17 -5 0 -10 -5 -10 -10 0
-6 -11 -21 -25 -34 -14 -13 -25 -28 -25 -34 0 -6 -8 -17 -19 -24 -10 -7 -28
-33 -41 -58 -13 -25 -30 -50 -39 -57 -9 -7 -12 -13 -8 -13 5 0 -5 -14 -22 -31
-17 -17 -29 -35 -25 -40 3 -5 0 -9 -6 -9 -6 0 -9 -4 -6 -8 3 -5 -4 -16 -15
-25 -10 -9 -19 -25 -19 -36 0 -11 -3 -21 -7 -23 -5 -1 -19 -25 -32 -53 -14
-27 -33 -62 -44 -77 -10 -16 -15 -28 -11 -28 4 0 0 -8 -8 -17 -9 -10 -30 -49
-48 -88 -17 -38 -41 -88 -51 -111 -10 -22 -19 -44 -19 -48 0 -5 -13 -36 -29
-70 -15 -33 -34 -79 -40 -101 -7 -22 -16 -49 -21 -60 -13 -31 -39 -117 -44
-150 -3 -16 -12 -55 -20 -85 -16 -64 -49 -251 -61 -355 -4 -39 -5 -346 -1
-405 5 -60 15 -141 20 -160 3 -8 7 -33 10 -55 3 -22 14 -71 23 -108 14 -57 15
-70 3 -77 -23 -14 -37 -1 -79 83 -23 45 -46 89 -51 97 -5 8 -18 35 -30 60 -12
25 -33 65 -47 90 -14 25 -24 45 -23 45 1 0 -4 14 -11 30 -15 36 -14 33 -24 70
-4 17 -11 35 -14 40 -20 30 -41 121 -42 178 0 9 -3 17 -7 17 -10 0 -16 98 -15
255 0 156 11 287 29 380 2 11 7 33 9 49 3 16 10 37 15 46 5 10 7 20 4 22 -5 5
14 61 42 125 8 17 14 36 14 41 0 6 5 23 12 39 6 15 12 33 14 38 26 94 39 131
46 133 4 2 5 8 2 14 -4 6 -2 13 3 17 5 3 20 35 33 71 31 87 106 245 142 297
15 23 28 48 28 56 0 9 3 17 8 19 4 2 20 29 37 61 16 33 37 68 47 80 10 11 18
26 18 33 0 7 6 17 13 21 7 4 23 30 37 56 13 27 34 56 45 65 12 10 22 22 23 27
2 6 18 26 37 47 19 20 35 39 35 43 0 3 6 12 12 19 7 7 31 35 53 61 22 26 102
111 178 188 75 77 137 144 137 149 0 4 4 8 10 8 5 0 25 15 45 33 63 59 191
157 204 157 5 0 11 9 14 21 3 12 10 18 16 14 6 -3 11 -1 11 4 0 6 5 11 11 11
11 0 84 55 110 82 9 10 19 15 23 11 3 -3 6 -1 6 5 0 7 3 11 8 11 18 -3 33 2
28 9 -3 5 8 16 25 26 16 9 29 14 29 10 0 -3 9 4 21 17 11 13 18 18 14 12 -3
-7 -1 -13 4 -13 6 0 11 6 11 14 0 7 8 16 18 19 9 4 44 22 77 42 33 19 72 40
88 46 15 6 27 15 27 20 0 5 13 9 29 9 16 0 31 5 33 11 2 6 19 17 38 24 56 21
213 86 234 97 33 17 124 47 129 41 3 -2 16 3 30 12 13 8 33 17 43 19 11 2 39
10 64 17 25 7 49 12 54 10 4 -1 14 3 21 9 8 6 30 13 50 16 21 2 45 9 55 14 10
6 31 10 45 10 14 0 35 5 46 10 14 8 19 7 19 -2 0 -10 2 -10 8 -1 4 7 23 15 42
17 40 6 132 22 170 31 57 12 90 17 131 20 69 5 153 16 163 23 5 3 6 0 2 -6 -5
-9 -1 -10 16 -3 13 4 63 8 111 7 49 0 91 3 94 7 2 4 32 5 66 2 34 -4 85 -6
112 -6z m181 -698 c66 -12 208 -42 315 -67 107 -24 222 -51 257 -59 34 -8 83
-25 110 -39 26 -13 58 -27 72 -31 14 -4 62 -25 108 -46 46 -22 87 -39 92 -39
5 0 32 -13 60 -30 28 -16 52 -30 54 -30 2 0 33 -17 67 -38 35 -21 78 -44 94
-52 17 -8 35 -18 40 -23 26 -19 226 -147 231 -147 5 0 187 -137 249 -188 194
-159 466 -435 545 -553 23 -35 57 -80 75 -99 18 -19 49 -60 69 -90 20 -30 44
-66 53 -80 52 -77 103 -157 103 -162 0 -3 18 -38 40 -77 70 -124 140 -265 140
-283 0 -10 3 -18 8 -18 4 0 16 -21 26 -48 11 -26 34 -80 53 -120 18 -41 33
-78 33 -84 0 -5 11 -42 24 -81 67 -198 100 -321 147 -547 30 -142 59 -498 59
-715 0 -196 -25 -495 -55 -655 -9 -47 -19 -100 -22 -118 -3 -18 -10 -35 -14
-38 -5 -3 -9 -15 -9 -27 0 -12 -11 -58 -25 -102 -25 -78 -31 -98 -39 -140 -2
-11 -18 -54 -35 -95 -17 -41 -31 -80 -31 -85 0 -6 -15 -42 -34 -80 -94 -195
-126 -264 -126 -272 0 -4 -20 -39 -45 -76 -25 -38 -45 -71 -45 -73 0 -8 -102
-163 -147 -223 -26 -35 -57 -77 -68 -95 -10 -17 -37 -50 -59 -74 -22 -24 -52
-61 -66 -82 -48 -73 -337 -347 -493 -467 -222 -172 -616 -380 -937 -495 -142
-51 -437 -128 -565 -147 -440 -65 -823 -50 -1242 50 -163 38 -350 95 -368 111
-5 4 -15 8 -23 8 -8 0 -67 26 -131 57 -64 31 -122 58 -128 59 -7 1 -52 24
-100 50 -49 27 -110 59 -137 72 -52 24 -312 194 -358 234 -14 13 -54 43 -89
68 -61 44 -238 194 -250 213 -4 5 -47 51 -96 101 -107 110 -207 222 -212 239
-2 7 -24 41 -50 77 -48 68 -121 179 -121 184 0 1 -27 50 -59 109 -129 231
-216 468 -256 701 -27 152 -31 286 -8 293 10 4 32 -44 33 -72 1 -5 7 -19 14
-30 7 -11 20 -42 30 -70 27 -73 88 -219 95 -225 4 -3 31 -59 61 -125 69 -151
123 -254 147 -280 10 -11 36 -49 58 -85 21 -36 43 -69 47 -75 4 -5 24 -30 43
-55 19 -25 45 -58 57 -74 48 -61 102 -123 142 -161 22 -22 65 -70 93 -105 29
-36 68 -74 87 -84 19 -10 48 -35 64 -55 54 -68 367 -303 506 -380 135 -76 483
-241 507 -241 7 0 43 -11 79 -24 36 -13 99 -34 140 -46 41 -11 85 -25 96 -30
12 -4 43 -11 70 -15 27 -4 63 -11 79 -16 49 -14 195 -34 355 -49 96 -8 433 -5
480 5 14 3 48 7 75 10 28 2 77 10 110 16 33 6 73 12 88 15 16 2 67 13 115 25
48 12 92 22 97 24 6 1 17 5 25 8 8 3 33 11 55 17 22 7 60 21 85 32 25 11 86
34 135 49 94 31 99 33 235 99 78 37 114 56 253 133 62 34 171 108 175 119 2 4
10 8 18 8 8 0 17 7 20 15 4 8 11 15 17 15 6 0 21 11 32 23 11 13 32 30 47 38
76 40 306 269 292 291 -4 6 -1 9 7 6 14 -5 129 102 129 121 0 6 6 11 13 11 8
0 20 18 27 40 7 21 16 37 20 35 4 -3 18 11 31 30 13 19 27 35 32 35 4 0 7 7 7
15 0 9 7 18 15 21 8 4 15 11 15 16 0 6 14 30 30 55 17 24 30 48 30 54 0 5 4 9
9 9 12 0 231 436 223 445 -3 3 -2 9 4 13 11 7 47 92 39 92 -2 0 9 31 25 69 27
66 34 90 46 156 3 16 9 34 14 40 5 6 11 24 14 40 2 17 5 30 6 30 1 0 3 9 5 20
2 11 8 47 14 80 20 107 49 326 50 370 0 17 3 59 6 95 9 85 9 345 1 440 -11
129 -17 191 -23 224 -3 17 -6 49 -8 71 -2 22 -5 47 -8 55 -4 12 -26 117 -41
200 -1 8 -5 24 -9 35 -3 11 -9 36 -12 55 -3 19 -10 39 -14 45 -5 5 -12 30 -16
55 -4 25 -11 50 -15 55 -4 6 -15 37 -25 70 -10 33 -26 71 -35 85 -14 21 -31
66 -34 92 -1 3 -4 10 -9 14 -4 4 -7 16 -7 26 0 10 -4 18 -9 18 -5 0 -12 12
-15 28 -4 15 -20 52 -36 83 -16 31 -26 59 -23 63 4 3 2 6 -4 6 -6 0 -16 13
-23 30 -7 16 -15 28 -19 26 -4 -3 -8 4 -8 15 -2 25 -44 109 -55 109 -4 0 -8 3
-7 8 2 14 -13 52 -21 52 -5 0 -11 8 -15 19 -3 10 -16 31 -29 46 -14 16 -30 40
-38 54 -7 14 -19 32 -25 39 -7 7 -13 18 -13 23 0 6 -6 16 -12 24 -24 25 -48
55 -43 55 2 0 -7 11 -21 25 -14 14 -23 29 -20 34 3 5 -1 11 -9 15 -8 3 -15 13
-15 21 0 9 -4 14 -8 11 -5 -3 -19 9 -33 26 -13 16 -30 36 -36 43 -7 8 -13 18
-13 24 0 6 -13 20 -30 33 -16 12 -32 30 -36 40 -3 10 -12 18 -20 18 -8 0 -14
4 -14 8 0 13 -185 202 -198 202 -7 0 -12 5 -12 11 0 13 -51 55 -62 51 -5 -1
-8 4 -8 12 0 8 -9 18 -20 21 -11 3 -20 14 -20 22 0 9 -3 13 -7 10 -7 -8 -46
15 -85 50 -14 14 -35 33 -46 43 -11 10 -23 16 -26 13 -3 -4 -14 2 -23 13 -10
10 -25 20 -33 22 -8 2 -16 8 -18 13 -2 5 -10 9 -18 9 -8 0 -14 5 -14 11 0 5
-22 19 -50 31 -27 11 -50 25 -50 29 0 5 -6 9 -14 9 -7 0 -30 14 -51 30 -21 17
-46 30 -56 30 -11 0 -19 5 -19 10 0 6 -6 10 -12 9 -17 -3 -68 22 -68 33 0 4
-5 8 -12 8 -6 0 -39 13 -72 29 -34 16 -79 37 -101 46 -22 9 -51 22 -66 30 -14
8 -36 16 -50 18 -13 2 -36 9 -52 15 -15 7 -38 14 -51 16 -14 2 -34 9 -45 16
-12 6 -21 8 -21 4 0 -3 -6 -1 -13 5 -8 6 -16 8 -20 5 -3 -3 -16 0 -28 7 -25
13 -80 29 -114 33 -11 2 -29 6 -40 9 -11 4 -36 9 -55 13 -19 3 -60 10 -90 15
-30 6 -69 11 -87 12 -17 1 -29 5 -27 9 2 3 -31 7 -73 7 -141 1 -223 6 -223 14
0 5 -5 5 -11 1 -7 -4 -48 -8 -93 -10 -45 -1 -115 -8 -156 -14 -41 -6 -97 -13
-125 -15 -27 -3 -72 -11 -100 -17 -27 -7 -57 -12 -65 -13 -8 0 -21 -4 -28 -9
-7 -4 -16 -6 -19 -3 -3 3 -17 1 -32 -5 -14 -5 -35 -11 -46 -13 -11 -2 -38 -9
-60 -15 -22 -6 -48 -12 -58 -15 -9 -2 -22 -7 -27 -10 -6 -4 -26 -8 -46 -10
-19 -2 -40 -7 -47 -13 -13 -11 -147 -66 -187 -78 -14 -3 -27 -10 -30 -14 -9
-11 -95 -50 -113 -50 -9 0 -17 -4 -17 -8 0 -5 -17 -17 -37 -28 -21 -10 -42
-23 -48 -27 -23 -17 -122 -73 -152 -86 -18 -7 -33 -16 -33 -20 0 -4 -32 -29
-71 -56 -39 -28 -84 -60 -99 -72 -15 -13 -33 -23 -40 -23 -6 0 -9 -4 -5 -9 3
-5 -4 -12 -14 -16 -11 -3 -32 -20 -46 -36 -14 -17 -25 -27 -25 -22 0 4 -4 3
-8 -2 -4 -6 -32 -30 -62 -55 -152 -122 -429 -450 -512 -605 -17 -33 -42 -74
-55 -91 -12 -17 -35 -53 -49 -80 -14 -27 -32 -60 -40 -74 -21 -39 -54 -118
-54 -129 0 -6 -4 -11 -10 -11 -5 0 -10 -5 -10 -11 0 -5 -9 -31 -21 -57 -11
-26 -24 -56 -29 -67 -6 -15 -54 -164 -65 -205 -1 -3 -5 -32 -10 -65 -5 -33
-10 -62 -10 -65 -4 -13 -16 -84 -30 -170 -8 -52 -17 -106 -20 -120 -13 -64
-15 -78 -21 -130 -3 -30 -10 -62 -15 -71 -4 -9 -6 -19 -2 -22 3 -4 0 -13 -7
-22 -8 -9 -10 -29 -7 -51 4 -25 2 -34 -6 -31 -7 2 -12 14 -11 26 0 11 -3 21
-8 21 -5 0 -7 4 -3 9 3 5 1 12 -5 16 -6 4 -8 11 -4 16 10 17 -7 139 -21 139
-9 0 -11 47 -9 196 2 108 5 213 8 233 3 20 9 68 12 106 3 39 7 77 9 85 10 65
34 163 68 285 18 63 80 221 118 303 16 34 29 67 29 73 0 6 11 25 24 42 13 18
47 77 76 132 66 127 132 223 223 325 12 14 22 30 22 36 0 6 32 46 70 89 39 43
73 82 76 87 3 5 13 10 22 12 9 1 30 19 46 40 90 113 301 304 501 453 180 135
582 339 795 403 51 16 370 96 415 104 29 6 176 27 245 36 125 16 446 5 581
-19z m-103 -680 c190 -23 283 -48 557 -146 105 -38 309 -139 407 -201 29 -19
68 -40 87 -48 28 -12 135 -84 156 -106 3 -3 25 -18 50 -34 105 -69 401 -343
493 -458 21 -27 53 -64 72 -83 18 -20 59 -76 91 -126 33 -49 80 -118 105 -152
74 -101 206 -364 261 -522 6 -16 24 -57 40 -91 16 -33 42 -118 59 -190 17 -71
35 -138 40 -149 14 -32 57 -221 74 -330 22 -138 31 -565 16 -718 -32 -306
-133 -716 -210 -851 -37 -64 -91 -194 -91 -219 0 -11 -4 -15 -12 -11 -7 4 -8
3 -4 -4 7 -12 -12 -52 -31 -65 -7 -4 -13 -14 -13 -21 0 -8 -7 -19 -15 -26 -8
-7 -24 -31 -34 -54 -10 -22 -47 -79 -82 -126 -35 -47 -71 -96 -80 -110 -10
-14 -25 -34 -35 -45 -11 -11 -37 -43 -59 -70 -107 -133 -288 -297 -450 -407
-49 -34 -110 -79 -134 -100 -24 -21 -49 -38 -55 -38 -6 0 -27 -11 -46 -23 -19
-13 -48 -27 -63 -31 -19 -4 -27 -12 -23 -21 3 -10 0 -12 -11 -8 -11 4 -14 2
-9 -5 6 -11 0 -14 -20 -11 -4 0 -10 -3 -13 -8 -8 -11 -70 -43 -83 -43 -16 0
-131 -52 -149 -67 -8 -7 -24 -14 -35 -16 -10 -2 -26 -7 -34 -10 -29 -13 -264
-78 -364 -102 -86 -21 -218 -40 -401 -58 -22 -2 -141 0 -265 4 -220 8 -491 43
-540 69 -10 6 -28 10 -40 10 -24 0 -159 39 -175 50 -5 4 -44 17 -85 30 -41 12
-96 33 -122 46 -26 13 -72 33 -102 44 -127 48 -521 283 -607 362 -14 13 -36
30 -49 39 -57 38 -252 219 -334 310 -160 178 -331 428 -328 478 1 13 -4 31
-11 40 -19 22 -57 142 -53 166 2 11 -2 23 -8 27 -6 4 -7 10 -3 14 7 7 29 -17
52 -58 29 -52 171 -250 193 -271 15 -14 45 -47 67 -73 83 -100 204 -221 336
-333 216 -183 280 -236 292 -240 7 -2 65 -37 130 -77 65 -41 120 -74 122 -74
3 0 68 -30 230 -105 17 -8 45 -20 63 -27 17 -7 32 -16 32 -20 0 -3 14 -4 30
-2 20 4 30 1 30 -7 0 -7 3 -10 6 -7 3 4 17 0 31 -7 15 -8 30 -12 35 -9 4 3 8
-2 8 -10 0 -9 6 -16 13 -17 57 -3 103 -12 105 -20 2 -5 11 -9 20 -9 9 0 34 -6
57 -14 52 -18 136 -38 155 -38 8 0 47 -6 85 -13 68 -13 268 -26 410 -27 90 0
280 19 370 37 38 8 86 16 105 19 45 7 275 76 363 110 86 32 373 180 452 233
33 22 71 46 85 53 13 7 30 18 36 24 7 6 24 20 39 31 14 11 38 30 53 42 15 13
54 44 87 70 67 55 151 137 245 244 36 40 76 83 89 96 13 13 21 23 17 23 -3 0
2 9 12 19 24 28 34 42 56 81 11 19 28 41 38 48 10 7 18 19 18 26 0 8 6 19 14
25 8 7 21 26 30 44 9 18 30 57 47 87 17 30 32 61 34 70 2 8 17 42 35 75 38 71
110 247 110 267 0 8 3 18 7 22 4 3 8 12 9 19 1 7 11 44 22 82 22 76 32 116 38
155 2 14 7 36 11 50 10 42 21 109 30 185 3 28 8 54 11 60 15 24 22 456 9 540
-3 17 -8 59 -12 95 -7 67 -28 192 -45 270 -6 25 -13 61 -15 80 -3 19 -10 37
-15 38 -6 2 -8 8 -5 12 3 5 -2 38 -11 72 -9 35 -17 69 -17 76 0 6 -3 12 -7 12
-4 0 -7 6 -7 13 -2 19 -27 81 -36 88 -5 3 -8 9 -7 13 4 15 -12 66 -21 66 -5 0
-9 11 -9 25 0 14 -5 25 -11 25 -5 0 -8 4 -5 8 5 9 -45 114 -66 140 -6 6 -7 12
-4 12 4 0 0 10 -8 22 -9 12 -16 30 -16 39 0 9 -7 19 -15 23 -8 3 -15 14 -15
24 0 11 -9 31 -20 45 -19 23 -53 92 -54 109 -1 3 -13 20 -28 37 -16 17 -28 33
-28 37 0 15 -67 105 -81 109 -10 3 -20 17 -23 30 -4 14 -11 25 -17 25 -6 0 -8
4 -5 9 3 4 -10 24 -29 44 -19 20 -35 43 -35 52 0 8 -4 15 -10 15 -12 0 -80 68
-80 80 0 5 -13 16 -28 24 -16 8 -54 40 -85 71 -31 30 -57 53 -57 50 0 -4 -25
18 -55 48 -30 29 -57 52 -59 49 -3 -2 -15 7 -28 20 -13 13 -40 37 -60 52 -21
16 -35 33 -31 39 3 6 1 7 -5 3 -6 -4 -31 6 -54 21 -24 15 -45 28 -48 28 -12 1
-145 79 -148 87 -2 4 -9 8 -16 8 -7 0 -22 9 -34 20 -12 12 -22 18 -22 15 0 -3
-24 7 -52 22 -29 15 -55 27 -58 28 -3 0 -27 11 -55 24 -27 12 -54 24 -60 25
-5 1 -28 10 -50 20 -64 28 -205 73 -269 86 -63 13 -71 14 -151 29 -27 5 -61
12 -75 15 -83 21 -403 28 -565 12 -49 -4 -104 -9 -121 -11 -17 -1 -40 -6 -52
-10 -13 -3 -36 -8 -53 -10 -17 -3 -38 -7 -48 -9 -20 -7 -82 -18 -98 -19 -7 0
-13 -4 -13 -9 0 -4 -3 -7 -8 -6 -11 4 -166 -45 -173 -55 -3 -5 -9 -8 -13 -7
-6 2 -95 -27 -146 -47 -8 -4 -17 -7 -20 -7 -3 -1 -21 -11 -40 -23 -19 -12 -47
-25 -62 -28 -16 -4 -25 -12 -21 -18 3 -5 1 -7 -4 -4 -6 4 -21 -1 -34 -11 -13
-10 -82 -53 -154 -96 -186 -110 -173 -102 -221 -141 -18 -14 -37 -25 -42 -25
-6 0 -13 -8 -17 -17 -3 -10 -27 -34 -53 -53 -25 -19 -70 -57 -98 -85 -28 -27
-63 -59 -79 -70 -15 -11 -37 -31 -49 -44 -12 -14 -30 -34 -41 -46 -11 -12 -36
-41 -55 -66 -19 -24 -37 -46 -40 -49 -3 -3 -11 -17 -18 -31 -8 -15 -24 -37
-37 -51 -12 -14 -31 -40 -40 -59 -10 -19 -21 -36 -26 -39 -4 -3 -25 -39 -47
-80 -21 -41 -58 -108 -81 -149 -51 -88 -121 -235 -121 -253 0 -8 -4 -18 -8
-23 -5 -6 -17 -32 -26 -60 -10 -27 -31 -78 -47 -111 -16 -34 -29 -67 -29 -73
0 -6 -6 -22 -14 -34 -8 -12 -22 -65 -30 -117 l-15 -95 5 105 c8 181 15 231 49
365 28 110 74 242 105 306 5 9 14 36 20 59 13 48 88 207 101 216 5 3 9 11 9
17 0 7 -4 6 -10 -3 -13 -20 -13 -4 1 21 5 11 14 17 20 14 5 -4 9 6 9 21 0 15
3 24 7 21 3 -4 11 1 17 11 6 10 20 33 31 51 43 73 122 190 165 245 45 58 266
285 331 339 19 16 60 53 93 83 32 30 63 54 70 54 6 0 25 13 42 29 29 27 77 57
198 125 28 15 53 32 54 37 2 5 10 9 18 9 8 0 14 5 14 11 0 6 7 9 15 5 8 -3 15
0 15 7 0 11 73 49 175 93 22 9 54 23 70 30 17 7 58 22 92 34 35 12 60 26 57
31 -3 5 7 9 22 9 25 0 66 10 119 30 75 28 187 48 342 60 76 6 143 13 148 15
19 8 420 -3 508 -14z m-283 -521 c52 -6 118 -13 145 -16 28 -3 57 -7 65 -9 8
-3 33 -7 55 -11 83 -12 164 -35 280 -80 66 -25 134 -50 150 -56 17 -6 54 -26
83 -45 29 -18 60 -33 70 -33 9 0 31 -9 47 -20 17 -11 67 -44 113 -73 281 -179
502 -388 729 -693 74 -98 76 -101 128 -189 20 -33 48 -80 63 -105 15 -25 45
-83 66 -130 21 -47 49 -108 61 -136 13 -28 30 -73 39 -100 8 -27 26 -80 41
-117 14 -37 25 -79 25 -93 0 -13 11 -79 24 -147 13 -67 30 -165 37 -217 17
-131 17 -473 1 -590 -8 -52 -22 -156 -33 -230 -10 -74 -27 -162 -37 -195 -43
-132 -190 -477 -211 -495 -4 -3 -12 -18 -20 -35 -11 -27 -53 -94 -129 -208
-14 -21 -30 -41 -36 -45 -6 -4 -35 -38 -64 -77 -30 -38 -73 -86 -97 -105 -24
-19 -47 -42 -50 -50 -3 -8 -31 -35 -61 -60 -31 -25 -70 -60 -87 -78 -67 -68
-291 -209 -488 -305 -180 -88 -370 -150 -588 -193 -134 -26 -182 -29 -401 -28
-218 1 -359 18 -510 59 -30 8 -60 15 -67 15 -6 0 -24 5 -40 12 -15 6 -35 12
-43 14 -38 4 -188 56 -230 79 -43 24 -102 52 -210 100 -58 25 -121 57 -140 69
-19 13 -74 47 -121 77 -106 68 -133 89 -142 112 -3 9 -13 17 -21 17 -8 0 -34
18 -58 41 -24 22 -58 47 -75 55 -18 8 -33 17 -33 20 0 3 6 2 13 -2 6 -3 -22
25 -63 64 -41 39 -78 71 -82 72 -10 0 -129 147 -165 205 -31 48 -27 80 4 35
107 -153 332 -368 518 -495 39 -26 84 -60 100 -75 17 -15 37 -30 45 -34 8 -4
38 -20 65 -36 95 -55 130 -71 260 -120 277 -102 392 -132 680 -176 78 -12 110
-13 113 -5 2 6 9 8 15 4 7 -3 8 -2 4 3 -5 5 -17 10 -28 10 -47 3 -52 4 -46 10
3 4 100 6 214 5 192 -1 219 1 359 28 84 16 160 34 170 39 11 5 37 15 59 22
118 35 357 133 415 169 8 5 49 28 90 52 41 23 126 81 188 128 63 47 121 91
129 96 33 21 68 51 107 94 23 25 68 73 101 107 33 35 71 77 85 94 14 17 31 37
38 45 6 7 12 18 12 24 0 6 4 11 9 11 6 0 20 18 32 40 13 22 27 40 31 40 5 0 7
4 4 9 -3 5 13 38 37 73 23 35 48 72 55 83 12 21 49 95 63 130 36 90 63 155 74
180 42 98 80 261 91 384 3 37 9 84 14 106 22 117 19 461 -6 655 -2 14 -10 59
-19 100 -8 41 -17 86 -19 100 -5 30 -35 149 -43 170 -4 8 -7 18 -8 23 -2 4 -3
8 -5 10 -1 1 -3 9 -5 17 -2 8 -10 40 -19 70 -8 30 -18 66 -22 80 -4 14 -16 39
-28 55 -11 17 -19 30 -17 30 2 0 -6 24 -19 53 -12 28 -27 52 -33 52 -6 0 -8 3
-4 6 5 6 -41 98 -75 146 -10 14 -18 29 -18 32 0 4 -12 25 -27 49 -15 23 -26
45 -25 50 1 4 -3 6 -9 5 -6 -2 -16 6 -22 17 -7 11 -22 34 -34 52 -13 17 -23
36 -23 42 0 6 -4 11 -9 11 -5 0 -19 15 -32 34 -13 19 -27 32 -31 30 -4 -3 -8
0 -8 7 0 14 -263 279 -277 279 -5 0 -23 12 -41 28 -55 47 -90 72 -101 72 -6 0
-11 6 -11 13 0 6 -27 25 -61 41 -33 16 -63 34 -65 41 -3 7 -19 15 -35 19 -16
3 -39 14 -51 25 -11 11 -34 23 -49 26 -16 4 -29 10 -29 14 0 6 -44 28 -130 63
-14 6 -38 16 -55 24 -95 43 -202 84 -221 84 -11 0 -24 3 -28 8 -4 4 -11 7 -14
8 -4 0 -19 4 -34 8 -28 8 -54 12 -146 20 -29 3 -56 7 -60 10 -15 9 -207 19
-330 17 -183 -3 -347 -28 -468 -69 -33 -12 -76 -24 -95 -27 -19 -3 -38 -10
-43 -16 -6 -5 -20 -9 -32 -9 -29 0 -446 -212 -485 -246 -8 -8 -18 -14 -21 -14
-8 0 -105 -65 -121 -82 -8 -7 -26 -22 -42 -33 -15 -11 -36 -28 -47 -37 -10
-10 -18 -16 -18 -13 0 3 -17 -13 -37 -35 -21 -22 -41 -40 -46 -40 -4 0 -27
-21 -50 -47 -23 -26 -66 -71 -94 -100 -29 -30 -53 -58 -53 -63 0 -6 -4 -10 -9
-10 -8 0 -153 -181 -179 -223 -7 -12 -26 -42 -43 -67 -16 -25 -36 -61 -45 -80
-9 -19 -21 -38 -28 -42 -6 -4 -8 -8 -4 -8 10 0 -70 -158 -84 -167 -8 -4 -9 0
-4 13 19 48 33 104 27 109 -3 4 1 5 9 3 11 -2 14 4 12 23 -2 15 4 34 13 43 9
9 11 16 5 16 -13 0 118 258 171 336 128 192 382 465 489 527 25 14 61 42 80
62 43 45 271 183 400 242 52 24 103 48 112 53 10 6 25 10 33 10 8 0 15 5 15
12 0 6 3 8 7 5 3 -4 13 -1 22 6 19 17 244 91 321 107 77 16 341 46 425 49 39
1 113 -3 165 -9z m-25 -450 c160 -20 425 -92 535 -145 65 -31 106 -53 243
-130 16 -9 48 -31 71 -48 24 -18 53 -39 66 -47 12 -8 39 -27 59 -43 20 -15 55
-42 79 -59 72 -54 294 -290 347 -369 28 -41 53 -75 58 -77 4 -2 7 -8 7 -13 0
-6 16 -31 35 -56 33 -43 105 -183 105 -204 0 -5 5 -9 10 -9 6 0 10 -7 10 -15
0 -9 11 -37 25 -62 13 -25 22 -50 19 -55 -3 -4 0 -8 6 -8 7 0 10 -6 7 -14 -3
-8 1 -17 9 -20 8 -3 14 -10 14 -16 0 -6 -4 -9 -9 -5 -9 5 2 -49 16 -85 4 -8 7
-18 8 -22 2 -5 4 -11 5 -15 1 -5 3 -15 4 -23 4 -39 19 -91 27 -96 5 -3 9 -18
9 -33 0 -15 7 -41 15 -57 8 -17 15 -45 17 -63 3 -35 18 -55 18 -24 1 16 2 16
10 2 29 -49 38 -383 15 -542 -23 -155 -97 -451 -126 -507 -11 -21 -63 -134
-96 -211 -25 -57 -80 -163 -108 -208 -93 -151 -331 -406 -495 -528 -145 -108
-390 -245 -500 -278 -209 -64 -363 -95 -500 -102 -134 -7 -146 1 -17 11 49 3
93 9 98 12 10 6 21 8 102 19 26 3 47 11 47 17 0 6 3 9 6 6 8 -8 123 26 213 63
95 39 248 119 325 170 32 22 62 39 66 39 4 0 14 7 21 16 7 9 43 36 80 60 114
74 311 263 421 404 32 41 58 80 58 87 0 7 5 13 10 13 6 0 20 20 32 45 12 25
25 45 28 45 4 0 15 19 25 43 10 23 33 74 50 112 18 39 38 88 45 110 6 22 15
49 20 60 5 11 17 43 25 70 9 28 19 57 22 65 4 8 8 24 9 35 8 66 18 105 25 105
5 0 8 3 8 8 -1 4 -1 25 0 47 1 30 4 36 11 25 7 -12 10 -8 11 15 0 17 3 39 5
50 10 43 15 92 14 128 -1 29 3 37 17 38 10 0 13 3 7 5 -8 3 -9 19 -2 52 5 26
6 108 3 182 -4 74 -7 143 -6 153 0 9 -4 17 -7 17 -4 0 -9 13 -10 28 -1 16 -13
61 -27 102 -13 40 -22 76 -19 81 3 5 -2 12 -10 15 -9 3 -13 10 -11 15 3 5 -1
22 -10 39 -8 16 -12 30 -8 30 5 0 0 7 -9 14 -10 7 -19 22 -21 32 -2 10 -9 29
-15 42 -7 12 -10 22 -6 22 3 0 2 6 -3 13 -6 6 -9 20 -8 30 2 9 -1 17 -6 17 -5
0 -9 11 -9 25 0 14 -4 25 -10 25 -5 0 -10 7 -10 15 0 9 -11 38 -25 65 -14 28
-24 51 -23 53 2 2 -3 11 -11 20 -7 10 -10 17 -7 17 4 0 -2 10 -14 22 -11 12
-21 25 -21 30 -1 4 -2 13 -3 18 0 6 -7 14 -14 19 -8 5 -13 12 -12 16 1 4 -7
19 -19 34 -61 76 -71 90 -71 97 0 9 -23 33 -170 179 -49 49 -90 95 -90 103 0
7 -8 15 -17 19 -10 3 -30 19 -45 35 -15 15 -31 28 -35 28 -4 0 -24 15 -43 33
-20 17 -53 43 -73 57 -20 14 -37 28 -37 33 0 4 -5 7 -10 7 -6 0 -37 18 -69 40
-32 22 -62 40 -65 40 -4 0 -24 13 -44 29 -39 31 -268 151 -288 151 -6 0 -25 7
-40 15 -16 8 -38 15 -50 15 -11 0 -24 4 -30 9 -5 5 -45 14 -89 20 -44 6 -114
17 -155 26 -129 25 -455 11 -650 -30 -14 -3 -34 -7 -45 -9 -87 -19 -288 -94
-365 -136 -8 -5 -48 -25 -88 -44 -80 -39 -285 -164 -290 -178 -2 -4 -10 -8
-18 -8 -8 0 -22 -8 -32 -17 -10 -10 -36 -30 -57 -45 -22 -15 -78 -64 -125
-108 -47 -44 -88 -80 -92 -80 -5 0 -8 -4 -8 -10 0 -5 -4 -10 -10 -10 -18 0
-10 15 32 60 23 25 58 64 78 87 91 107 384 312 585 408 44 21 92 46 106 56 14
10 36 20 50 22 13 2 31 7 39 10 112 43 367 109 470 120 77 8 320 6 395 -3z
m-251 -346 c31 -12 16 -23 -29 -21 -44 2 -52 6 -38 20 8 9 46 9 67 1z m-169
-21 c-16 -2 -73 -10 -125 -18 -52 -8 -113 -17 -135 -19 -36 -4 -38 -3 -21 9
10 8 44 17 75 20 31 3 63 8 71 9 8 2 49 4 90 3 41 0 62 -2 45 -4z m348 -10
c-7 -2 -21 -2 -30 0 -10 3 -4 5 12 5 17 0 24 -2 18 -5z m134 -19 c-3 -3 -12
-4 -19 -1 -8 3 -5 6 6 6 11 1 17 -2 13 -5z m-787 -14 c0 -5 -4 -10 -10 -10 -5
0 -10 5 -10 10 0 6 5 10 10 10 6 0 10 -4 10 -10z m-270 -120 c0 -5 -10 -10
-22 -10 -19 0 -20 2 -8 10 19 13 30 13 30 0z m-827 -315 c-3 -9 -8 -14 -10
-11 -3 3 -2 9 2 15 9 16 15 13 8 -4z m-62 -68 c-6 -8 -8 -17 -4 -20 3 -4 1 -7
-5 -7 -15 0 -15 13 0 28 16 16 23 15 9 -1z m1654 -161 c72 -14 150 -32 175
-41 105 -37 209 -81 265 -113 56 -31 80 -48 218 -151 137 -104 277 -279 370
-466 80 -160 91 -188 122 -343 39 -186 35 -341 -11 -522 -19 -74 -50 -166 -69
-205 -18 -38 -43 -92 -54 -118 -29 -67 -84 -150 -155 -232 -170 -197 -314
-297 -611 -420 -56 -23 -181 -52 -305 -71 -192 -29 -481 -2 -655 62 -99 37
-241 98 -311 135 -56 30 -83 48 -217 148 -71 54 -199 188 -259 273 -42 57 -66
100 -159 278 -42 81 -68 180 -79 310 -12 126 -7 216 17 330 18 88 67 220 99
270 13 19 29 51 35 70 31 87 199 301 331 422 239 217 495 341 798 387 178 27
298 26 455 -3z m-2059 -140 c-20 -47 -48 -95 -42 -71 3 11 8 34 12 50 10 43
23 67 34 60 6 -4 4 -19 -4 -39z m-566 -406 c0 -5 -2 -10 -4 -10 -3 0 -8 5 -11
10 -3 6 -1 10 4 10 6 0 11 -4 11 -10z m4667 -132 c-3 -8 -6 -5 -6 6 -1 11 2
17 5 13 3 -3 4 -12 1 -19z m-5562 -619 c9 -17 14 -33 11 -37 -3 -3 -6 0 -6 6
0 7 -5 12 -11 12 -5 0 -7 -6 -3 -12 4 -8 3 -9 -2 -5 -8 8 -16 67 -8 67 2 0 11
-14 19 -31z m1663 -1054 c-3 -3 -9 2 -12 12 -6 14 -5 15 5 6 7 -7 10 -15 7
-18z m1407 -870 c11 -2 20 -4 20 -5 0 -1 13 -4 29 -6 16 -3 38 -10 48 -15 10
-5 23 -7 28 -4 5 3 11 1 14 -4 4 -5 -4 -8 -16 -6 -13 2 -41 7 -63 11 -22 3
-65 15 -95 25 -52 17 -42 18 35 4z m292 -61 c-3 -3 -12 -4 -19 -1 -8 3 -5 6 6
6 11 1 17 -2 13 -5z"/>
<path d="M4796 8561 c-18 -7 -18 -8 -2 -14 28 -11 43 -8 50 8 6 16 -15 19 -48
6z"/>
<path d="M4580 8519 c-79 -21 -109 -37 -50 -25 19 4 61 9 92 13 32 3 63 12 69
19 16 20 -19 17 -111 -7z"/>
<path d="M6078 8443 c7 -3 16 -2 19 1 4 3 -2 6 -13 5 -11 0 -14 -3 -6 -6z"/>
<path d="M6130 8426 c14 -9 39 -15 55 -15 40 0 15 14 -40 23 -39 6 -39 6 -15
-8z"/>
<path d="M2949 7544 l-24 -27 28 18 c15 9 27 21 27 26 0 14 -5 11 -31 -17z"/>
<path d="M2782 3413 c24 -49 32 -63 39 -63 5 0 -1 16 -12 35 -12 19 -23 35
-26 35 -2 0 -3 -3 -1 -7z"/>
<path d="M3090 2996 c0 -2 8 -10 18 -17 15 -13 16 -12 3 4 -13 16 -21 21 -21
13z"/>
<path d="M10080 80 l0 -80 80 0 80 0 0 80 0 80 -80 0 -80 0 0 -80z"/>
</g>
</svg>
