<?xml version="1.0" encoding="UTF-8"?>
<svg width="512" height="512" version="1.1" viewBox="0 0 512 512" xml:space="preserve" xmlns="http://www.w3.org/2000/svg"><defs><style type="text/css">*{stroke-linejoin: round; stroke-linecap: butt}</style></defs><path d="m268.5 1.42 0.07227 0.09375a13.62 15.38 0 0 1 1.502 2.373l1.125 2.199a13.62 15.38 0 0 1 0.8008 1.832l1.16 3.164a13.62 15.38 0 0 1 0.3867 1.195l1.221 4.316a13.62 15.38 0 0 1 0.2324 0.9199l1.629 7.291a13.62 15.38 0 0 1 0.1406 0.6973l1.748 9.709a13.62 15.38 0 0 1 0.07813 0.4824l1.756 11.63a13.62 15.38 0 0 1 0.05079 0.3652l2.141 16.57a13.62 15.38 0 0 1 0.03516 0.293l2.416 21.62a13.62 15.38 0 0 1 0.02539 0.2285l2.961 30.09a13.62 15.38 0 0 1 0.01367 0.1602l2.799 31.47a13.62 15.38 0 0 1 0.01172 0.1172l4.258 51.88a13.62 15.38 0 0 1 0.00195 0.03711l11.94 149.5 3.553 39.42 2.709 26.94 2.594 22.76 1.74 13.23 1.412-8.895 3.213-22.72 4.305-33.51 12.29-98.29a13.62 15.38 0 0 1 0.03515-0.2715l3.113-22.04a13.62 15.38 0 0 1 0.03907-0.2617l3.098-19.74a13.62 15.38 0 0 1 0.05664-0.3457l2.609-14.67a13.62 15.38 0 0 1 0.08594-0.4473l2.619-12.74a13.62 15.38 0 0 1 0.1328-0.5977l2.334-9.59a13.62 15.38 0 0 1 0.2168-0.7988l2.309-7.801a13.62 15.38 0 0 1 0.332-1.006l1.789-4.883a13.62 15.38 0 0 1 0.5098-1.234l1.789-3.869a13.62 15.38 0 0 1 0.7637-1.455l1.301-2.191a13.62 15.38 0 0 1 0.998-1.475l1.143-1.498a13.62 15.38 0 0 1 1.457-1.639l1.145-1.104a13.62 15.38 0 0 1 2.209-1.738l1.143-0.7227a13.62 15.38 0 0 1 3.578-1.561l1.461-0.3828a13.62 15.38 0 0 1 4.871-0.2578l1.553 0.2363a13.62 15.38 0 0 1 3.947 1.301l1.326 0.6992a13.62 15.38 0 0 1 2.451 1.666l1.312 1.117a13.62 15.38 0 0 1 1.541 1.537l1.295 1.5a13.62 15.38 0 0 1 1.037 1.346l1.498 2.197a13.62 15.38 0 0 1 0.7148 1.154l1.625 2.893a13.62 15.38 0 0 1 0.4668 0.8984l1.623 3.379a13.62 15.38 0 0 1 0.3828 0.8613l2.783 6.775a13.62 15.38 0 0 1 0.2734 0.7129l2.771 7.75a13.62 15.38 0 0 1 0.1582 0.4648l3.217 9.91a13.62 15.38 0 0 1 0.0664 0.2109l14.89 48.02 2.984 8.266 3.016 7.395 2.348 4.988 2.217 4.027 0.877 1.383 1.951 2.59 0.4277 0.4629 0.9941 0.8828 0.3125 0.1504 0.04102-0.00586 0.75-0.2168 1.256-0.5684 1.457-0.8477 2.629-1.84 2.693-2.117 12.43-10.32a13.62 15.38 0 0 1 0.6719-0.5254l4.377-3.193a13.62 15.38 0 0 1 0.8008-0.541l4.471-2.793a13.62 15.38 0 0 1 0.9902-0.5606l4.051-2.066a13.62 15.38 0 0 1 1.117-0.5059l4.248-1.672a13.62 15.38 0 0 1 1.186-0.3984l4.031-1.137a13.62 15.38 0 0 1 1.08-0.252l3.611-0.6738a13.62 15.38 0 0 1 0.8027-0.1191l2.482-0.293a13.62 15.38 0 0 1 0.9258-0.07226l5.588-0.2246 8.371-0.3359a254.9 254.9 0 0 0 0.8438-11.8 254.9 254.9 0 0 0-242.4-254.6zm-25.26 0.6113a254.9 254.9 0 0 0-242.1 254 254.9 254.9 0 0 0 0.8418 11.76l14.51 0.6484a13.62 15.38 0 0 1 1.297 0.127l4.742 0.7285a13.62 15.38 0 0 1 1.146 0.2344l3.566 0.9043a13.62 15.38 0 0 1 1.201 0.3691l4.756 1.732a13.62 15.38 0 0 1 1.273 0.5469l4.529 2.236a13.62 15.38 0 0 1 1.033 0.5684l4.135 2.533a13.62 15.38 0 0 1 0.8711 0.5801l5.336 3.871a13.62 15.38 0 0 1 0.6211 0.4785l5.303 4.33a13.62 15.38 0 0 1 0.06445 0.05469l9.414 7.785 3.445 2.355 1.602 0.8379 1.021 0.3672 0.1699 0.03711 0.0918-0.00781 0.3594-0.2324 0.4453-0.3789 1.453-1.609 1.859-2.635 1.771-3.043 1.676-3.297 1.971-4.361 2.402-5.943 2.787-7.648 3.5-10.54 5.682-18.52 7.055-23.12a13.62 15.38 0 0 1 0.1406-0.4375l3.527-10.52a13.62 15.38 0 0 1 0.2051-0.5703l2.479-6.588a13.62 15.38 0 0 1 0.2832-0.6973l2.143-4.98a13.62 15.38 0 0 1 0.4883-1.037l2.43-4.697a13.62 15.38 0 0 1 0.7578-1.307l1.512-2.342a13.62 15.38 0 0 1 1.162-1.572l1.881-2.219a13.62 15.38 0 0 1 1.775-1.762l1.123-0.9316a13.62 15.38 0 0 1 2.398-1.59l1.396-0.7226a13.62 15.38 0 0 1 3.848-1.256l1.396-0.2129a13.62 15.38 0 0 1 3.779 0.02148l0.9316 0.1543a13.62 15.38 0 0 1 2.904 0.8555l0.9766 0.4219a13.62 15.38 0 0 1 3.059 1.859l1.629 1.314a13.62 15.38 0 0 1 2.328 2.389l1.627 2.105a13.62 15.38 0 0 1 1.293 1.965l1.729 3.127a13.62 15.38 0 0 1 0.7129 1.459l1.666 3.896a13.62 15.38 0 0 1 0.4062 1.049l1.666 4.775a13.62 15.38 0 0 1 0.2715 0.8476l2 6.896a13.62 15.38 0 0 1 0.1973 0.7422l2.42 10.02a13.62 15.38 0 0 1 0.1191 0.5313l1.941 9.326a13.62 15.38 0 0 1 0.07227 0.3828l2.256 12.22a13.62 15.38 0 0 1 0.05664 0.3242l2.482 15.07a13.62 15.38 0 0 1 0.04102 0.2695l2.943 19.83a13.62 15.38 0 0 1 0.03125 0.2168l3.322 24.52a13.62 15.38 0 0 1 0.01953 0.1504l3.742 29.54a13.62 15.38 0 0 1 0.00586 0.03711l10.89 87.49 3.359 23.94 1.57 9.973 1.646-12.46 2.312-20.03 2.707-26.49 3.012-32.77 3.811-45.29 5.674-71.84a13.62 15.38 0 0 1 0-0.01368l6.385-80.04a13.62 15.38 0 0 1 0.01172-0.127l3.703-42.56a13.62 15.38 0 0 1 0.01758-0.1719l3-30.91a13.62 15.38 0 0 1 0.02343-0.2129l2.273-20.74a13.62 15.38 0 0 1 0.0293-0.2773l2.316-18.38a13.62 15.38 0 0 1 0.04883-0.3613l1.809-12.25a13.62 15.38 0 0 1 0.07422-0.4668l1.771-10.07a13.62 15.38 0 0 1 0.123-0.6309l1.49-6.93a13.62 15.38 0 0 1 0.2285-0.9395l1.607-5.838a13.62 15.38 0 0 1 0.4844-1.479l1.328-3.514a13.62 15.38 0 0 1 0.9434-2.045l1.051-1.918a13.62 15.38 0 0 1 0.8672-1.254zm12.8 70.62-2.209 20.14-2.982 30.72-3.693 42.42-6.377 79.97-5.68 71.88a13.62 15.38 0 0 1-0.00586 0.08984l-3.818 45.4a13.62 15.38 0 0 1-0.01367 0.1348l-3.025 32.92a13.62 15.38 0 0 1-0.01563 0.1758l-2.729 26.7a13.62 15.38 0 0 1-0.02539 0.2207l-2.342 20.29a13.62 15.38 0 0 1-0.0332 0.2832l-2.15 16.25a13.62 15.38 0 0 1-0.05468 0.3789l-2.107 13.6a13.62 15.38 0 0 1-0.08008 0.4668l-1.555 8.484a13.62 15.38 0 0 1-0.1152 0.5605l-1.555 7.127a13.62 15.38 0 0 1-0.1973 0.8066l-1.527 5.646a13.62 15.38 0 0 1-0.3144 1.035l-1.146 3.361a13.62 15.38 0 0 1-0.541 1.383l-1.256 2.826a13.62 15.38 0 0 1-0.1719 0.3281 254.9 254.9 0 0 0 45.73 4.65 254.9 254.9 0 0 0 45.72-4.648 13.62 15.38 0 0 1-0.04687-0.08594l-0.9648-2.084a13.62 15.38 0 0 1-0.6016-1.488l-1.494-4.279a13.62 15.38 0 0 1-0.3672-1.184l-1.518-5.66a13.62 15.38 0 0 1-0.1914-0.7871l-1.52-6.971a13.62 15.38 0 0 1-0.1094-0.5508l-1.514-8.23a13.62 15.38 0 0 1-0.07813-0.4688l-2.166-13.95a13.62 15.38 0 0 1-0.05664-0.3906l-2.23-16.93a13.62 15.38 0 0 1-0.03516-0.2988l-2.625-23.02a13.62 15.38 0 0 1-0.02344-0.2285l-2.732-27.14a13.62 15.38 0 0 1-0.01562-0.1777l-3.57-39.6a13.62 15.38 0 0 1-0.01368-0.1719l-11.95-149.6-4.252-51.8-2.787-31.34-2.939-29.89-1.93-17.26zm123.2 143.4-0.1309 0.4414-2.164 8.889-2.51 12.21-2.539 14.27-3.047 19.44-3.076 21.77-12.28 98.18a13.62 15.38 0 0 1-0.00391 0.0586l-4.324 33.65a13.62 15.38 0 0 1-0.03125 0.2188l-3.25 22.97a13.62 15.38 0 0 1-0.04101 0.2852l-2.377 15a13.62 15.38 0 0 1-0.06641 0.3828l-2.469 13.58a13.62 15.38 0 0 1-0.1094 0.5566l-2.068 9.564a13.62 15.38 0 0 1-0.1582 0.6641l-1.479 5.719a13.62 15.38 0 0 1-0.25 0.8613l-0.8809 2.789a254.9 254.9 0 0 0 171-198.8l-4.258 0.1719-5.125 0.2031-1.611 0.1914-2.666 0.4941-2.889 0.8145-3.092 1.219-2.998 1.529-3.578 2.236-3.641 2.658-12.24 10.16a13.62 15.38 0 0 1-0.2812 0.2285l-3.139 2.469a13.62 15.38 0 0 1-0.623 0.4629l-3.395 2.369a13.62 15.38 0 0 1-0.9141 0.584l-2.506 1.463a13.62 15.38 0 0 1-1.193 0.6172l-2.68 1.207a13.62 15.38 0 0 1-1.656 0.6133l-2.533 0.7383a13.62 15.38 0 0 1-1.898 0.3926l-2.096 0.2617a13.62 15.38 0 0 1-2.15 0.07422l-2.334-0.127a13.62 15.38 0 0 1-2.387-0.3691l-2.238-0.5781a13.62 15.38 0 0 1-2.334-0.8613l-2.42-1.172a13.62 15.38 0 0 1-1.691-0.9844l-1.465-1.006a13.62 15.38 0 0 1-1.332-1.041l-2.205-1.953a13.62 15.38 0 0 1-1.047-1.029l-1.414-1.533a13.62 15.38 0 0 1-0.9238-1.111l-2.752-3.654a13.62 15.38 0 0 1-0.6914-0.9961l-1.469-2.309a13.62 15.38 0 0 1-0.5-0.8457l-2.699-4.908a13.62 15.38 0 0 1-0.4648-0.9062l-2.744-5.838a13.62 15.38 0 0 1-0.3418-0.7793l-3.303-8.096a13.62 15.38 0 0 1-0.2383-0.625l-3.23-8.941a13.62 15.38 0 0 1-0.2422-0.7246l-14.97-48.28-3.107-9.576-1.994-5.574zm-246.4 0.00391-0.7285 1.934-3.359 10.01-6.99 22.91a13.62 15.38 0 0 1-0.00781 0.02344l-5.742 18.72a13.62 15.38 0 0 1-0.1172 0.3633l-3.637 10.95a13.62 15.38 0 0 1-0.1543 0.4531l-2.969 8.145a13.62 15.38 0 0 1-0.209 0.5352l-2.635 6.516a13.62 15.38 0 0 1-0.2559 0.6055l-2.256 4.986a13.62 15.38 0 0 1-0.3144 0.6543l-2.045 4.031a13.62 15.38 0 0 1-0.4355 0.8027l-2.34 4.018a13.62 15.38 0 0 1-0.7227 1.125l-2.77 3.932a13.62 15.38 0 0 1-1.133 1.416l-2.688 2.969a13.62 15.38 0 0 1-1.322 1.285l-1.832 1.555a13.62 15.38 0 0 1-1.424 1.062l-1.963 1.271a13.62 15.38 0 0 1-1.771 0.959l-1.963 0.877a13.62 15.38 0 0 1-1.76 0.6328l-1.521 0.4199a13.62 15.38 0 0 1-2.049 0.3828l-2.402 0.2402a13.62 15.38 0 0 1-2.111 0.02149l-1.824-0.1387a13.62 15.38 0 0 1-1.613-0.2344l-1.82-0.3887a13.62 15.38 0 0 1-1.625-0.4668l-2.613-0.9473a13.62 15.38 0 0 1-1.555-0.6856l-3.051-1.592a13.62 15.38 0 0 1-1.338-0.8027l-4.605-3.148a13.62 15.38 0 0 1-0.9922-0.75l-9.863-8.156-4.967-4.057-4.592-3.33-3.186-1.951-3.381-1.67-3.516-1.279-2.389-0.6055-3.518-0.543-5.428-0.2402-4.207-0.1875a254.9 254.9 0 0 0 170.9 198.8 13.62 15.38 0 0 1-0.0625-0.1875l-1.355-4.664a13.62 15.38 0 0 1-0.1953-0.7227l-1.623-6.658a13.62 15.38 0 0 1-0.1328-0.6074l-2.072-10.09a13.62 15.38 0 0 1-0.08789-0.4473l-1.945-10.96a13.62 15.38 0 0 1-0.05469-0.334l-2.447-15.53a13.62 15.38 0 0 1-0.04297-0.2871l-3.398-24.22a13.62 15.38 0 0 1-0.03515-0.2676l-10.91-87.61-3.732-29.45-3.299-24.34-2.904-19.59-2.436-14.78-2.189-11.88-1.846-8.873-2.266-9.383-0.1758-0.6074z" fill="#79bde8"/></svg>
